#!OML:ASF H:\Not Pregnant\Project 1\Capture day 1\Session 1\non-pregnant.ASF
:FULLY-SPECIFIED
:DEGREES
946
root 0.762806 15.8171 15.857 9.62674 -6.22161 361.366
lowerback -1.44101 2.41625 -0.400235
upperback -9.33216 3.07733 -2.15015
thorax -8.90761 1.44675 -2.24135
lowerneck 12.6271 -11.6931 -29.27
upperneck -2.1119 -21.1208 39.1891
head 5.57734 -11.9504 18.0463
rclavicle -3.0265e-014 5.56597e-015
rhumerus -31.2873 11.6415 -81.6191
rradius 64.8719
rwrist -14.1426
rhand -12.7898 -29.0301
rfingers 7.12502
rthumb 13.2958 -58.586
lclavicle -3.0265e-014 5.56597e-015
lhumerus -39.3802 -14.976 77.746
lradius 70.7868
lwrist 57.0244
lhand -21.6566 11.9568
lfingers 7.12502
lthumb 4.74039 41.8838
rfemur -22.3979 2.02064 17.2829
rtibia 69.3199
rfoot -0.86311 11.1261
rtoes -25.4432
lfemur -32.4073 -0.967476 -24.0806
ltibia 35.4479
lfoot -12.1659 -7.13375
ltoes -19.2192
947
root 0.78083 15.8165 15.9844 9.60991 -6.42471 361.525
lowerback -1.37006 2.41071 -0.539435
upperback -9.31399 3.0598 -2.19888
thorax -8.93487 1.44599 -2.21749
lowerneck 12.5355 -11.6818 -29.2536
upperneck -2.07803 -21.0873 39.1852
head 5.5878 -11.9249 18.0416
rclavicle -1.10325e-014 -5.56597e-015
rhumerus -31.1406 11.6906 -81.687
rradius 64.7801
rwrist -14.0627
rhand -12.8068 -29.0022
rfingers 7.12502
rthumb 13.2794 -58.5591
lclavicle -1.10325e-014 -5.56597e-015
lhumerus -39.3246 -15.0028 77.6649
lradius 70.7564
lwrist 57.0157
lhand -21.7054 11.8603
lfingers 7.12502
lthumb 4.69323 41.7883
rfemur -23.9157 1.9445 17.21
rtibia 70.2682
rfoot -2.32776 10.3152
rtoes -25.0371
lfemur -31.9589 -0.823654 -24.4148
ltibia 35.6024
lfoot -12.6287 -6.96149
ltoes -19.1636
948
root 0.797874 15.8151 16.1111 9.62674 -6.5657 361.628
lowerback -1.3308 2.39146 -0.622308
upperback -9.30319 3.02738 -2.23162
thorax -8.94984 1.43447 -2.2057
lowerneck 12.4407 -11.6756 -29.2341
upperneck -2.03392 -21.0627 39.1775
head 5.60411 -11.9029 18.032
rclavicle 1.95803e-014 1.15295e-014
rhumerus -31.0253 11.7219 -81.751
rradius 64.7275
rwrist -14.0043
rhand -12.8324 -28.9782
rfingers 7.12502
rthumb 13.2548 -58.5368
lclavicle 1.95803e-014 1.15295e-014
lhumerus -39.273 -15.0161 77.5877
lradius 70.7321
lwrist 57.0119
lhand -21.744 11.7635
lfingers 7.12502
lthumb 4.65594 41.6924
rfemur -25.4154 1.84155 17.2263
rtibia 71.0178
rfoot -3.76347 9.53815
rtoes -24.7913
lfemur -31.5706 -0.708064 -24.6811
ltibia 35.7931
lfoot -13.0911 -6.82196
ltoes -19.1105
949
root 0.813735 15.8137 16.2371 9.66675 -6.6471 361.687
lowerback -1.32164 2.36117 -0.663694
upperback -9.29151 2.98322 -2.25098
thorax -8.94481 1.41488 -2.20038
lowerneck 12.3508 -11.6737 -29.2124
upperneck -1.99105 -21.0452 39.1717
head 5.62207 -11.885 18.0215
rclavicle -5.31749e-015 -5.96354e-015
rhumerus -30.9247 11.7352 -81.804
rradius 64.7025
rwrist -13.9862
rhand -12.8794 -28.9399
rfingers 7.12502
rthumb 13.2094 -58.5014
lclavicle -5.31749e-015 -5.96354e-015
lhumerus -39.2133 -15.0202 77.5181
lradius 70.7168
lwrist 57.0167
lhand -21.7703 11.6679
lfingers 7.12502
lthumb 4.63055 41.5973
rfemur -26.8817 1.71413 17.3175
rtibia 71.5604
rfoot -5.14048 8.7774
rtoes -24.711
lfemur -31.2171 -0.624857 -24.8902
ltibia 35.9962
lfoot -13.5375 -6.71676
ltoes -19.0086
950
root 0.828309 15.8123 16.3627 9.71161 -6.67564 361.714
lowerback -1.31463 2.31946 -0.68166
upperback -9.28272 2.92564 -2.2569
thorax -8.94151 1.38749 -2.19303
lowerneck 12.2788 -11.6714 -29.1965
upperneck -1.94953 -21.0321 39.1657
head 5.63883 -11.871 18.0128
rclavicle -1.76421e-014 3.57812e-015
rhumerus -30.8621 11.7315 -81.8446
rradius 64.7128
rwrist -13.9882
rhand -12.9226 -28.9032
rfingers 7.12502
rthumb 13.1678 -58.4674
lclavicle -1.76421e-014 3.57812e-015
lhumerus -39.1562 -15.0128 77.4576
lradius 70.7067
lwrist 57.0263
lhand -21.7782 11.5796
lfingers 7.12502
lthumb 4.6229 41.5092
rfemur -28.2919 1.56545 17.4677
rtibia 71.8947
rfoot -6.43277 8.02726
rtoes -24.8101
lfemur -30.8685 -0.560561 -25.0573
ltibia 36.1935
lfoot -13.979 -6.65278
ltoes -18.8418
951
root 0.841847 15.8115 16.4885 9.74762 -6.66081 361.733
lowerback -1.3065 2.26793 -0.698873
upperback -9.26834 2.85562 -2.25453
thorax -8.93334 1.35438 -2.17636
lowerneck 12.217 -11.6702 -29.1875
upperneck -1.90895 -21.0242 39.1608
head 5.6566 -11.8607 18.0058
rclavicle 1.68967e-015 5.1684e-015
rhumerus -30.817 11.7064 -81.8697
rradius 64.7404
rwrist -13.9971
rhand -12.9409 -28.8598
rfingers 7.12502
rthumb 13.1501 -58.4252
lclavicle 1.68967e-015 5.1684e-015
lhumerus -39.1014 -14.9846 77.4066
lradius 70.7111
lwrist 57.031
lhand -21.7655 11.4949
lfingers 7.12502
lthumb 4.6352 41.4242
rfemur -29.6291 1.39369 17.6448
rtibia 72.0229
rfoot -7.64397 7.28967
rtoes -25.1392
lfemur -30.497 -0.517459 -25.2084
ltibia 36.3663
lfoot -14.411 -6.61942
ltoes -18.6169
952
root 0.854239 15.8111 16.614 9.76849 -6.61445 361.746
lowerback -1.28431 2.21032 -0.72009
upperback -9.24692 2.77764 -2.24633
thorax -8.92629 1.31793 -2.15119
lowerneck 12.1667 -11.6694 -29.184
upperneck -1.87665 -21.0194 39.1617
head 5.67299 -11.8535 18.0032
rclavicle -2.75814e-014 3.97569e-015
rhumerus -30.7809 11.6638 -81.8792
rradius 64.7761
rwrist -14.0103
rhand -12.9466 -28.8016
rfingers 7.12502
rthumb 13.1446 -58.3673
lclavicle -2.75814e-014 3.97569e-015
lhumerus -39.0381 -14.9492 77.3625
lradius 70.7212
lwrist 57.036
lhand -21.7377 11.4197
lfingers 7.12502
lthumb 4.66205 41.3484
rfemur -30.8928 1.21019 17.8422
rtibia 71.9541
rfoot -8.72945 6.56973
rtoes -25.5996
lfemur -30.0936 -0.484333 -25.3473
ltibia 36.5059
lfoot -14.8313 -6.61396
ltoes -18.3463
953
root 0.865588 15.8111 16.7394 9.77263 -6.5483 361.759
lowerback -1.24386 2.1499 -0.753258
upperback -9.22168 2.69558 -2.2329
thorax -8.92662 1.28057 -2.11429
lowerneck 12.1292 -11.6695 -29.1906
upperneck -1.8472 -21.0199 39.1627
head 5.68971 -11.8503 18.0025
rclavicle -1.27222e-014 -5.96354e-015
rhumerus -30.7566 11.6035 -81.8737
rradius 64.8205
rwrist -14.0175
rhand -12.9345 -28.7296
rfingers 7.12502
rthumb 13.1563 -58.2945
lclavicle -1.27222e-014 -5.96354e-015
lhumerus -38.9794 -14.9058 77.3271
lradius 70.7435
lwrist 57.0372
lhand -21.6893 11.3498
lfingers 7.12502
lthumb 4.70876 41.2775
rfemur -32.0864 1.02375 18.0481
rtibia 71.697
rfoot -9.68489 5.86869
rtoes -26.0962
lfemur -29.6534 -0.455039 -25.4822
ltibia 36.6083
lfoot -15.2371 -6.62472
ltoes -18.0549
954
root 0.876073 15.8113 16.8647 9.76154 -6.46957 361.778
lowerback -1.18406 2.08563 -0.802335
upperback -9.19178 2.60771 -2.21562
thorax -8.93415 1.24169 -2.06474
lowerneck 12.0935 -11.6713 -29.1999
upperneck -1.82364 -21.0223 39.1637
head 5.70553 -11.8482 18.0015
rclavicle -6.95746e-015 -2.78299e-015
rhumerus -30.734 11.5371 -81.8599
rradius 64.8669
rwrist -14.019
rhand -12.9191 -28.6436
rfingers 7.12502
rthumb 13.1712 -58.2075
lclavicle -6.95746e-015 -2.78299e-015
lhumerus -38.9202 -14.8574 77.295
lradius 70.7766
lwrist 57.0463
lhand -21.6245 11.2775
lfingers 7.12502
lthumb 4.77134 41.2038
rfemur -33.2137 0.837968 18.2534
rtibia 71.2634
rfoot -10.5146 5.18369
rtoes -26.606
lfemur -29.1803 -0.42389 -25.6193
ltibia 36.679
lfoot -15.6296 -6.64532
ltoes -17.7698
955
root 0.885661 15.8114 16.9895 9.74633 -6.38388 361.793
lowerback -1.11083 2.02248 -0.856563
upperback -9.16355 2.52113 -2.19436
thorax -8.95166 1.20394 -2.00877
lowerneck 12.072 -11.6735 -29.2129
upperneck -1.80634 -21.0272 39.1624
head 5.71799 -11.8488 18.0006
rclavicle 8.05078e-015 -1.86858e-014
rhumerus -30.7183 11.4633 -81.8368
rradius 64.9207
rwrist -14.0218
rhand -12.912 -28.5508
rfingers 7.12502
rthumb 13.178 -58.1144
lclavicle 8.05078e-015 -1.86858e-014
lhumerus -38.8698 -14.8145 77.267
lradius 70.829
lwrist 57.0632
lhand -21.5456 11.2052
lfingers 7.12502
lthumb 4.84753 41.1297
rfemur -34.289 0.662228 18.4687
rtibia 70.6642
rfoot -11.2287 4.4941
rtoes -27.1094
lfemur -28.6926 -0.39024 -25.7467
ltibia 36.7265
lfoot -16.0042 -6.67145
ltoes -17.4691
956
root 0.894441 15.811 17.1139 9.73498 -6.30059 361.805
lowerback -1.03131 1.96051 -0.920105
upperback -9.13691 2.43594 -2.16768
thorax -8.97505 1.16781 -1.94215
lowerneck 12.0459 -11.6788 -29.2257
upperneck -1.79287 -21.0338 39.1564
head 5.72993 -11.8494 17.9958
rclavicle 7.7526e-015 -2.38542e-015
rhumerus -30.7048 11.3926 -81.8045
rradius 64.987
rwrist -14.0267
rhand -12.9102 -28.4735
rfingers 7.12502
rthumb 13.1797 -58.037
lclavicle 7.7526e-015 -2.38542e-015
lhumerus -38.8201 -14.7711 77.2402
lradius 70.8959
lwrist 57.0847
lhand -21.4538 11.1357
lfingers 7.12502
lthumb 4.93619 41.0582
rfemur -35.321 0.503466 18.6898
rtibia 69.9132
rfoot -11.8431 3.77884
rtoes -27.5977
lfemur -28.2029 -0.347391 -25.868
ltibia 36.7589
lfoot -16.3659 -6.69861
ltoes -17.1675
957
root 0.902368 15.8098 17.2378 9.73432 -6.22262 361.807
lowerback -0.953329 1.90315 -0.985486
upperback -9.11226 2.35708 -2.13694
thorax -8.99963 1.13515 -1.87046
lowerneck 12.0214 -11.6877 -29.2343
upperneck -1.79188 -21.0418 39.1499
head 5.73798 -11.851 17.9887
rclavicle 4.09496e-014 1.59028e-015
rhumerus -30.6859 11.323 -81.7644
rradius 65.0631
rwrist -14.0449
rhand -12.9265 -28.3995
rfingers 7.12502
rthumb 13.1641 -57.964
lclavicle 4.09496e-014 1.59028e-015
lhumerus -38.7635 -14.7494 77.2153
lradius 70.975
lwrist 57.1223
lhand -21.3557 11.0576
lfingers 7.12502
lthumb 5.03086 40.9779
rfemur -36.3149 0.367666 18.9237
rtibia 69.0205
rfoot -12.3868 3.01264
rtoes -28.0576
lfemur -27.7211 -0.300823 -25.9744
ltibia 36.7821
lfoot -16.7145 -6.71629
ltoes -16.8939
958
root 0.909573 15.8078 17.3618 9.74371 -6.14872 361.816
lowerback -0.885453 1.84785 -1.06356
upperback -9.09225 2.28048 -2.10611
thorax -9.02367 1.10464 -1.79134
lowerneck 12.0066 -11.694 -29.244
upperneck -1.79747 -21.0465 39.1438
head 5.74125 -11.852 17.9837
rclavicle -5.31749e-015 8.74653e-015
rhumerus -30.6744 11.2622 -81.7193
rradius 65.1527
rwrist -14.0777
rhand -12.9515 -28.335
rfingers 7.12502
rthumb 13.1399 -57.901
lclavicle -5.31749e-015 8.74653e-015
lhumerus -38.7101 -14.7491 77.1907
lradius 71.0653
lwrist 57.1702
lhand -21.2629 10.9836
lfingers 7.12502
lthumb 5.12048 40.9017
rfemur -37.2642 0.249894 19.1517
rtibia 67.9961
rfoot -12.8832 2.18283
rtoes -28.4418
lfemur -27.2439 -0.2504 -26.0827
ltibia 36.7948
lfoot -17.064 -6.73112
ltoes -16.6301
959
root 0.916074 15.8055 17.4858 9.76864 -6.08378 361.827
lowerback -0.828279 1.79604 -1.15316
upperback -9.07782 2.20811 -2.07502
thorax -9.04776 1.07715 -1.70545
lowerneck 11.9919 -11.7015 -29.2523
upperneck -1.80592 -21.0516 39.1351
head 5.74314 -11.853 17.9767
rclavicle -2.78299e-014 1.59028e-015
rhumerus -30.6666 11.2042 -81.6703
rradius 65.2567
rwrist -14.1142
rhand -12.9627 -28.2743
rfingers 7.12502
rthumb 13.1292 -57.841
lclavicle -2.78299e-014 1.59028e-015
lhumerus -38.658 -14.7649 77.1637
lradius 71.1695
lwrist 57.2241
lhand -21.1727 10.9138
lfingers 7.12502
lthumb 5.20763 40.8299
rfemur -38.1776 0.159523 19.3743
rtibia 66.8457
rfoot -13.3264 1.28026
rtoes -28.7332
lfemur -26.7727 -0.201722 -26.189
ltibia 36.7891
lfoot -17.4025 -6.74234
ltoes -16.3756
